<svg id="Layer_1" data-name="Layer 1" xmlns="http://www.w3.org/2000/svg" viewBox="0 0 274.5 255.86"><defs><style>.cls-1{fill:#828282;}.cls-2{fill:#f3ff00;}.cls-3{fill:#619cec;}.cls-4{fill:#111214;}.cls-5{fill:#003c78;}.cls-6{fill:#28292e;}.cls-7{fill:#fff;}.cls-8{fill:#161010;}.cls-9{fill:#535b65;}.cls-10{fill:#b9bcba;}.cls-11{fill:#ff960b;}.cls-12{fill:#fc9815;}</style></defs><title>cranelogo</title><circle class="cls-1" cx="154.92" cy="136.28" r="119.59"/><circle class="cls-2" cx="155.92" cy="136.28" r="109.36"/><path class="cls-3" d="M161.32,212.23a4.37,4.37,0,0,0-4,2.67c-.15.37-.3.75-.43,1.14l-8,26.15v15.17a1.94,1.94,0,0,0,1.94,1.94h50V216.59a4.35,4.35,0,0,0-4.35-4.36Z" transform="translate(-87.64 -97.5)"/><path class="cls-4" d="M150.82,262.56a1.94,1.94,0,0,0-1.94,1.94v11a8.36,8.36,0,0,0,7.79,8.34V262.56Z" transform="translate(-87.64 -97.5)"/><rect class="cls-5" x="63.33" y="161.8" width="49.82" height="3.26"/><path class="cls-4" d="M149.27,240.8s3.83-1.18,4.51-3.62c1-3.43,5.56-18.82,5.49-19.9-.09-1.24-2.4-1.24-2.4-1.24Z" transform="translate(-87.64 -97.5)"/><rect x="112.93" y="151.17" width="142.04" height="20.13"/><path class="cls-4" d="M184.48,233.48a1.94,1.94,0,0,1-1.7,1.92l-22.85,3a1.95,1.95,0,0,1-2.12-2.42l4.8-18.45a1.94,1.94,0,0,1,1.88-1.45h18a1.94,1.94,0,0,1,1.95,1.94Z" transform="translate(-87.64 -97.5)"/><path class="cls-4" d="M156.67,262.56v21.25a5.83,5.83,0,0,0,.59,0h9a15.59,15.59,0,0,1,31.17,0H200a.78.78,0,0,0,.78-.78v-20.5Z" transform="translate(-87.64 -97.5)"/><path d="M196.21,283.84a14.36,14.36,0,1,1-14.36-14.36A14.35,14.35,0,0,1,196.21,283.84Z" transform="translate(-87.64 -97.5)"/><polygon class="cls-6" points="115.22 59.91 127.72 59.91 186.38 151.17 173.88 151.17 115.22 59.91"/><path class="cls-7" d="M188.32,283.84a6.48,6.48,0,1,1-6.47-6.47A6.48,6.48,0,0,1,188.32,283.84Z" transform="translate(-87.64 -97.5)"/><path d="M300.54,283.84a14.36,14.36,0,1,1-14.36-14.36A14.35,14.35,0,0,1,300.54,283.84Z" transform="translate(-87.64 -97.5)"/><path class="cls-7" d="M292.66,283.84a6.48,6.48,0,1,1-6.48-6.47A6.48,6.48,0,0,1,292.66,283.84Z" transform="translate(-87.64 -97.5)"/><path class="cls-8" d="M286.18,266.67c-9.93,0-17.24,7.5-16.24,19.14l1.18-1.08c.46-11.14,7.56-15.91,15.06-15.91s14.6,4.77,15.07,15.91l1.17,1.08C303.43,274.17,296.11,266.67,286.18,266.67Z" transform="translate(-87.64 -97.5)"/><path d="M232.43,283.84a14.36,14.36,0,1,1-14.36-14.36A14.35,14.35,0,0,1,232.43,283.84Z" transform="translate(-87.64 -97.5)"/><path class="cls-7" d="M224.54,283.84a6.48,6.48,0,1,1-6.47-6.47A6.48,6.48,0,0,1,224.54,283.84Z" transform="translate(-87.64 -97.5)"/><path class="cls-8" d="M218.07,266.67c-9.93,0-17.25,7.5-16.24,19.14l1.17-1.08c.47-11.14,7.56-15.91,15.07-15.91s14.6,4.77,15.06,15.91l1.18,1.08C235.31,274.17,228,266.67,218.07,266.67Z" transform="translate(-87.64 -97.5)"/><polygon class="cls-9" points="11.63 142.05 4.34 142.05 4.32 141.24 0.64 16.59 2.31 16.55 5.96 140.38 9.96 140.38 10.53 18.44 12.2 18.45 11.63 142.05"/><path d="M333,283.84a14.36,14.36,0,1,1-14.36-14.36A14.35,14.35,0,0,1,333,283.84Z" transform="translate(-87.64 -97.5)"/><path class="cls-7" d="M325.08,283.84a6.48,6.48,0,1,1-6.47-6.47A6.47,6.47,0,0,1,325.08,283.84Z" transform="translate(-87.64 -97.5)"/><path class="cls-8" d="M318.61,266.67c-9.93,0-17.25,7.5-16.24,19.14l1.17-1.08c.47-11.14,7.57-15.91,15.07-15.91s14.6,4.77,15.06,15.91l1.18,1.08C335.85,274.17,328.54,266.67,318.61,266.67Z" transform="translate(-87.64 -97.5)"/><rect class="cls-6" x="89.19" y="144.43" width="6.78" height="2.24" rx="0.22"/><path class="cls-10" d="M147.68,171.3H181a.55.55,0,0,1,.55.55v16.22a.55.55,0,0,1-.55.55H147.68a.56.56,0,0,1-.56-.56V171.85A.55.55,0,0,1,147.68,171.3Z"/><rect class="cls-9" x="150.49" y="171.3" width="2.24" height="17.06"/><rect class="cls-9" x="263.59" y="268.8" width="2.24" height="17.06" transform="translate(441.78 457.16) rotate(180)"/><path class="cls-9" d="M253.91,275.39a1.94,1.94,0,1,1-1.93-1.94A1.93,1.93,0,0,1,253.91,275.39Z" transform="translate(-87.64 -97.5)"/><rect class="cls-4" x="153.72" y="171.01" width="186.19" height="19.9" transform="translate(15.59 -186.81) rotate(25.77)"/><rect x="98.96" y="118.39" width="67.38" height="14.89" transform="translate(-19.73 -142.66) rotate(25.77)"/><path class="cls-11" d="M99,118a2.61,2.61,0,0,1-3.49,1.22l-6.4-3.09a2.6,2.6,0,0,1-1.21-3.49L94.51,99A2.61,2.61,0,0,1,98,97.76l6.4,3.09a2.62,2.62,0,0,1,1.21,3.49Z" transform="translate(-87.64 -97.5)"/><rect class="cls-5" x="203.04" y="114.73" width="51.93" height="32"/><path class="cls-3" d="M292.12,246.36H253.83v-11.3c0-12.42,5.38-23.23,8-27.81a4.71,4.71,0,0,1,4.06-2.33h26.19Z" transform="translate(-87.64 -97.5)"/><rect class="cls-6" x="172.49" y="148.86" width="26.06" height="2.3"/><path class="cls-4" d="M261.78,207.41c-2.67,4.64-7.9,15.27-7.94,27.49H271a7.2,7.2,0,0,0,5-2l5.69-5.54a2.78,2.78,0,0,1,1.93-.78h2.76a.83.83,0,0,0,.83-.83V208.24a.83.83,0,0,0-.83-.83Z" transform="translate(-87.64 -97.5)"/><path d="M93.76,249.15a11.59,11.59,0,0,0-2.4,5.23,4.55,4.55,0,0,0,3,4.92c1.9.61,4.46.09,5.24-1.43a5.7,5.7,0,0,0,.21-4,7,7,0,0,1-.07-1.46c0-.45-.75-.56-.8.09a9.16,9.16,0,0,1-.68,3.31c-.6,1-2.68.9-3.07-.21-.5-1.4,1-3.8,1-3.8Z" transform="translate(-87.64 -97.5)"/><polygon class="cls-12" points="11.67 136.26 7.69 136.26 3.71 136.26 1.21 139.05 1.21 145.08 6.61 154.27 7.69 154.27 8.77 154.27 14.17 145.08 14.17 139.05 11.67 136.26"/></svg>